<svg width="73.000000" height="15.000000" viewBox="0 0 73 15" fill="none" xmlns="http://www.w3.org/2000/svg" xmlns:xlink="http://www.w3.org/1999/xlink">
	<desc>
			Created with Pixso.
	</desc>
	<defs/>
	<path id="Fylla" d="M11.95 -0.79L11.95 1.27L1.94 1.27L1.94 6.12L10.13 6.12L10.13 8.14L1.94 8.14L1.94 14.78L-0.36 14.78L-0.36 -0.79L11.95 -0.79ZM27.31 -0.79L21.39 9.58L21.39 14.78L19.08 14.78L19.08 9.58L13.15 -0.79L15.79 -0.79L20.28 7.3L24.67 -0.79L27.31 -0.79ZM32.06 12.72L32.06 -0.79L29.75 -0.79L29.75 14.78L41.23 14.78L41.23 12.72L32.06 12.72ZM46.61 -0.79L46.61 12.72L55.78 12.72L55.78 14.78L44.31 14.78L44.31 -0.79L46.61 -0.79ZM63.78 -0.79L57.42 14.78L59.9 14.78L61.42 10.92L68.61 10.92L70.14 14.78L72.64 14.78L66.23 -0.79L63.78 -0.79ZM67.8 8.85L65.01 1.81L62.23 8.85L67.8 8.85Z" fill="#191919" fill-opacity="1.000000" fill-rule="evenodd"/>
</svg>
