<svg width="50.000000" height="50.000000" viewBox="0 0 50 50" fill="none" xmlns="http://www.w3.org/2000/svg" xmlns:xlink="http://www.w3.org/1999/xlink">
	<desc>
			Created with Pixso.
	</desc>
	<defs/>
	<path id="Vector" d="M41.85 50L0 50L0 8.11L41.85 8.11L41.85 50ZM0.66 49.33L41.18 49.33L41.18 8.78L0.66 8.78L0.66 49.33Z" fill="#191919" fill-opacity="1.000000" fill-rule="nonzero"/>
	<path id="Vector" d="M45.63 45.76L3.78 45.76L3.78 3.87L45.63 3.87L45.63 45.76ZM4.45 45.09L44.96 45.09L44.96 4.54L4.45 4.54L4.45 45.09Z" fill="#191919" fill-opacity="1.000000" fill-rule="nonzero"/>
	<path id="Vector" d="M49.64 41.89L7.79 41.89L7.79 0L49.64 0L49.64 41.89ZM8.46 41.22L48.97 41.22L48.97 0.66L8.46 0.66L8.46 41.22Z" fill="#191919" fill-opacity="1.000000" fill-rule="nonzero"/>
	<path id="Vector" d="M13.42 27.27L22.67 27.27L22.67 36.53L13.42 36.53L13.42 27.27Z" fill="#191919" fill-opacity="1.000000" fill-rule="nonzero"/>
</svg>
